<?xml version="1.0" encoding="UTF-8"?><svg id="b" xmlns="http://www.w3.org/2000/svg" viewBox="0 0 333.86 65.33"><g id="c"><path d="m10.93,23.57h7.87l10.88,31.41h-8.76l-1.9-6.15h-8.36l-1.86,6.15H0l10.93-31.41Zm6.72,19.51l-2.79-9.73-2.92,9.73h5.71Z" style="fill:#86b9d6;"/><path d="m31.27,22.69h8.4v23.05c0,1.77.72,2.65,2.17,2.65.35,0,.74-.06,1.15-.18.41-.12.8-.28,1.15-.49l1.06,6.19c-1,.47-2.13.84-3.38,1.11-1.25.27-2.44.4-3.56.4-2.24,0-3.97-.58-5.18-1.73-1.21-1.15-1.81-2.82-1.81-5v-26.01Z" style="fill:#86b9d6;"/><path d="m74.14,31.71h7.92l-9.51,23.27h-6.86l-3.14-8.85-3.14,8.85h-6.86l-9.51-23.27h7.92l5.62,15.61,1.46-5-4.16-10.62h6.68l1.99,6.81,1.99-6.81h6.68l-4.16,10.62,1.46,5,5.62-15.61Z" style="fill:#86b9d6;"/><path d="m89.97,55.42c-1.15,0-2.23-.19-3.23-.58-1-.38-1.87-.91-2.59-1.57-.72-.66-1.29-1.45-1.7-2.37-.41-.91-.62-1.9-.62-2.96,0-1.18.25-2.26.75-3.23.5-.97,1.19-1.81,2.08-2.52.88-.71,1.94-1.25,3.16-1.64s2.57-.58,4.05-.58c1.89,0,3.45.29,4.69.88v-.71c0-1.09-.32-1.9-.95-2.43-.63-.53-1.66-.8-3.07-.8-1.33,0-2.55.21-3.67.64-1.12.43-2.3,1.05-3.54,1.88l-2.43-5.22c3.07-1.98,6.56-2.96,10.48-2.96,3.72,0,6.58.83,8.58,2.48,2,1.65,3.01,4.13,3.01,7.43v4.51c0,.8.12,1.35.35,1.66.24.31.65.49,1.24.55v7.08c-.68.15-1.32.26-1.92.33-.6.07-1.14.11-1.61.11-1.5,0-2.65-.27-3.43-.82s-1.29-1.35-1.53-2.41l-.18-.84c-1.03,1.33-2.23,2.34-3.58,3.03s-2.8,1.04-4.33,1.04Zm2.52-6.02c.5,0,1.02-.08,1.55-.24.53-.16,1-.38,1.42-.64.32-.24.59-.49.8-.77.21-.28.31-.57.31-.86v-1.73c-.5-.18-1.05-.32-1.64-.44-.59-.12-1.12-.18-1.59-.18-1.03,0-1.89.25-2.57.75-.68.5-1.02,1.14-1.02,1.9,0,.65.26,1.18.77,1.59.52.41,1.17.62,1.97.62Z" style="fill:#86b9d6;"/><path d="m108.38,57.32c1.36.5,2.51.75,3.45.75,1.8,0,2.79-1.03,2.96-3.1l-8.45-23.27h8.63l4.42,16.15,3.58-16.15h7.83l-7.87,26.05c-.35,1.15-.86,2.19-1.5,3.12-.65.93-1.42,1.73-2.32,2.39s-1.89,1.17-2.99,1.53c-1.09.35-2.23.53-3.41.53-1.5,0-2.95-.28-4.33-.84v-7.17Z" style="fill:#86b9d6;"/><path d="m142.17,55.42c-2.04,0-4.03-.33-5.97-1-1.95-.66-3.6-1.63-4.96-2.9l2.88-5.04c1.44.97,2.84,1.73,4.18,2.26,1.34.53,2.57.8,3.69.8,1.18,0,1.77-.37,1.77-1.11,0-.41-.23-.77-.69-1.06-.46-.29-1.35-.63-2.68-1.02-1.65-.47-3.03-.94-4.14-1.39-1.11-.46-2-.95-2.7-1.48-.69-.53-1.19-1.12-1.48-1.77-.29-.65-.44-1.42-.44-2.3,0-1.18.24-2.27.71-3.27.47-1,1.13-1.87,1.97-2.61.84-.74,1.84-1.3,3.01-1.7,1.16-.4,2.44-.6,3.83-.6,1.71,0,3.34.22,4.89.66,1.55.44,3.1,1.34,4.67,2.7l-3.19,5.04c-1.44-.94-2.65-1.61-3.63-2.01-.97-.4-1.89-.6-2.74-.6-.5,0-.92.1-1.24.29-.32.19-.49.49-.49.91,0,.44.24.8.71,1.08s1.4.6,2.79.95c1.68.44,3.1.91,4.25,1.39,1.15.49,2.07,1.02,2.76,1.59.69.57,1.19,1.22,1.48,1.95.29.72.44,1.56.44,2.5,0,1.21-.22,2.29-.66,3.23-.44.94-1.08,1.75-1.92,2.43-.84.68-1.86,1.19-3.05,1.55s-2.54.53-4.05.53Z" style="fill:#86b9d6;"/><path d="m163.54,39.01c0-1.92.36-3.8,1.08-5.66s1.78-3.52,3.16-5c1.39-1.47,3.07-2.67,5.04-3.58,1.98-.91,4.23-1.37,6.77-1.37,3.04,0,5.67.63,7.9,1.88,2.23,1.25,3.88,2.91,4.98,4.98l-6.59,4.69c-.29-.77-.69-1.4-1.17-1.9-.49-.5-1.03-.9-1.61-1.19-.59-.29-1.2-.5-1.84-.62-.63-.12-1.25-.18-1.84-.18-1.24,0-2.31.24-3.21.73-.9.49-1.64,1.12-2.21,1.9-.58.78-1,1.67-1.28,2.65-.28.99-.42,1.97-.42,2.94,0,1.09.16,2.14.49,3.14s.8,1.89,1.42,2.65c.62.77,1.38,1.38,2.28,1.84.9.46,1.91.69,3.03.69.59,0,1.19-.07,1.81-.2.62-.13,1.22-.35,1.79-.66.58-.31,1.09-.71,1.55-1.19.46-.49.82-1.08,1.08-1.79l7.03,4.2c-.47,1.15-1.19,2.18-2.15,3.1-.96.91-2.05,1.68-3.27,2.3-1.22.62-2.54,1.09-3.94,1.42s-2.76.49-4.09.49c-2.33,0-4.46-.46-6.39-1.39-1.93-.93-3.6-2.16-5-3.69-1.4-1.53-2.49-3.27-3.25-5.22s-1.15-3.92-1.15-5.93Z" style="fill:#fff;"/><path d="m195.08,22.69h8.4v23.05c0,1.77.72,2.65,2.17,2.65.35,0,.74-.06,1.15-.18.41-.12.8-.28,1.15-.49l1.06,6.19c-1,.47-2.13.84-3.38,1.11-1.25.27-2.44.4-3.56.4-2.24,0-3.97-.58-5.18-1.73-1.21-1.15-1.81-2.82-1.81-5v-26.01Z" style="fill:#fff;"/><path d="m222.41,55.42c-2.04,0-3.85-.32-5.44-.95-1.59-.63-2.93-1.5-4-2.59-1.08-1.09-1.89-2.34-2.46-3.76s-.84-2.9-.84-4.47c0-1.68.27-3.27.82-4.78.54-1.5,1.36-2.82,2.43-3.94,1.08-1.12,2.4-2.01,3.98-2.68,1.58-.66,3.41-1,5.51-1s3.89.33,5.49,1c1.59.66,2.93,1.55,4,2.65,1.08,1.11,1.89,2.39,2.43,3.85.55,1.46.82,2.99.82,4.58,0,.44-.02.89-.07,1.35-.04.46-.1.86-.15,1.22h-16.32c.09,1.24.54,2.13,1.37,2.68.83.55,1.72.82,2.7.82.91,0,1.78-.21,2.59-.62.81-.41,1.35-.99,1.61-1.73l7.12,2.03c-.94,1.86-2.4,3.38-4.36,4.56-1.96,1.18-4.37,1.77-7.23,1.77Zm3.72-14.55c-.15-1.12-.56-2.01-1.24-2.65-.68-.65-1.55-.97-2.61-.97s-1.93.32-2.61.97c-.68.65-1.09,1.53-1.24,2.65h7.7Z" style="fill:#fff;"/><path d="m244.75,55.42c-1.15,0-2.23-.19-3.23-.58-1-.38-1.87-.91-2.59-1.57-.72-.66-1.29-1.45-1.7-2.37-.41-.91-.62-1.9-.62-2.96,0-1.18.25-2.26.75-3.23.5-.97,1.19-1.81,2.08-2.52.88-.71,1.94-1.25,3.16-1.64s2.57-.58,4.05-.58c1.89,0,3.45.29,4.69.88v-.71c0-1.09-.32-1.9-.95-2.43-.63-.53-1.66-.8-3.07-.8-1.33,0-2.55.21-3.67.64-1.12.43-2.3,1.05-3.54,1.88l-2.43-5.22c3.07-1.98,6.56-2.96,10.48-2.96,3.72,0,6.58.83,8.58,2.48,2,1.65,3.01,4.13,3.01,7.43v4.51c0,.8.12,1.35.35,1.66.24.31.65.49,1.24.55v7.08c-.68.15-1.32.26-1.92.33-.6.07-1.14.11-1.61.11-1.5,0-2.65-.27-3.43-.82s-1.29-1.35-1.53-2.41l-.18-.84c-1.03,1.33-2.23,2.34-3.58,3.03s-2.8,1.04-4.33,1.04Zm2.52-6.02c.5,0,1.02-.08,1.55-.24.53-.16,1-.38,1.42-.64.32-.24.59-.49.8-.77.21-.28.31-.57.31-.86v-1.73c-.5-.18-1.05-.32-1.64-.44-.59-.12-1.12-.18-1.59-.18-1.03,0-1.89.25-2.57.75-.68.5-1.02,1.14-1.02,1.9,0,.65.26,1.18.77,1.59.52.41,1.17.62,1.97.62Z" style="fill:#fff;"/><path d="m287.79,54.98h-8.4v-13.09c0-1.15-.26-1.98-.77-2.5-.52-.52-1.11-.77-1.79-.77s-1.46.31-2.26.93c-.8.62-1.39,1.42-1.77,2.39v13.05h-8.41v-23.27h7.56v3.45c.83-1.27,1.98-2.23,3.47-2.9,1.49-.66,3.25-1,5.29-1,1.59,0,2.85.29,3.78.86.93.57,1.64,1.29,2.12,2.15.49.86.8,1.77.95,2.74.15.97.22,1.86.22,2.65v15.31Z" style="fill:#fff;"/><path d="m300.24,4c5.87,0,10.65,4.78,10.65,10.65s-4.78,10.65-10.65,10.65-10.65-4.78-10.65-10.65,4.78-10.65,10.65-10.65m0-4c-8.09,0-14.65,6.56-14.65,14.65h0c0,8.09,6.56,14.65,14.65,14.65s14.65-6.56,14.65-14.65h0c0-8.09-6.56-14.65-14.65-14.65h0Z" style="fill:#62c3d5;"/><path d="m321.69,29.79c4.51,0,8.17,3.67,8.17,8.17s-3.67,8.17-8.17,8.17-8.17-3.67-8.17-8.17,3.67-8.17,8.17-8.17m0-4c-6.72,0-12.17,5.45-12.17,12.17h0c0,6.72,5.45,12.17,12.17,12.17s12.17-5.45,12.17-12.17h0c0-6.72-5.45-12.17-12.17-12.17h0Z" style="fill:#62c3d5;"/><path d="m305.41,50.38c3.02,0,5.48,2.46,5.48,5.48s-2.46,5.48-5.48,5.48-5.48-2.46-5.48-5.48,2.46-5.48,5.48-5.48m0-4c-5.23,0-9.48,4.24-9.48,9.48h0c0,5.23,4.24,9.48,9.48,9.48s9.48-4.24,9.48-9.48h0c0-5.23-4.24-9.48-9.48-9.48h0Z" style="fill:#62c3d5;"/><path d="m325.92,8.5s.02,0,.02,0c.07.55.35,2.2,1.77,3.55,1.3,1.24,2.79,1.49,3.34,1.55,0,0,.01.01,0,.02-.62.11-1.82.41-2.96,1.37-1.63,1.37-2.04,3.15-2.15,3.75,0,0-.01,0-.02,0-.07-.55-.39-2.28-1.91-3.65-1.24-1.12-2.62-1.39-3.2-1.47,0,0,0-.01,0-.02.55-.07,2.14-.34,3.48-1.71,1.29-1.31,1.56-2.84,1.63-3.39Z" style="fill:none; stroke:#62c3d5; stroke-linecap:round; stroke-linejoin:round; stroke-width:2px;"/></g></svg>